<?xml version="1.0" standalone="no"?>
<!DOCTYPE svg PUBLIC "-//W3C//DTD SVG 20010904//EN" "http://www.w3.org/TR/2001/REC-SVG-20010904/DTD/svg10.dtd">
<svg version="1.0" xmlns="http://www.w3.org/2000/svg" width="512.000000pt" height="512.000000pt"
    viewBox="0 0 512.000000 512.000000" preserveAspectRatio="xMidYMid meet">

    <g transform="translate(0.000000,512.000000) scale(0.100000,-0.100000)" fill="#000000" stroke="none">
        <path d="M2670 2880 l0 -1170 180 0 180 0 0 283 0 283 76 74 c65 64 77 73 87
59 7 -8 133 -169 280 -357 l269 -342 229 0 c182 0 229 3 223 13 -5 6 -176 222
-382 480 l-374 467 48 55 c27 30 181 189 343 355 l293 300 -228 0 -229 0 -317
-317 -318 -318 0 653 0 652 -180 0 -180 0 0 -1170z" />
        <path d="M1665 3946 c-153 -57 -166 -299 -20 -371 59 -29 157 -26 213 5 126
71 130 274 6 350 -46 29 -143 36 -199 16z" />
        <path d="M1050 3220 l0 -160 263 -2 262 -3 0 -710 c0 -659 -1 -714 -18 -762
-46 -130 -125 -183 -287 -191 -54 -2 -149 1 -210 7 -62 7 -114 11 -115 9 -7
-7 -27 -299 -21 -305 16 -16 174 -32 317 -32 124 -1 172 3 234 19 246 63 395
218 446 463 18 86 19 147 19 960 l0 867 -445 0 -445 0 0 -160z" />
    </g>
</svg>